<svg xmlns="http://www.w3.org/2000/svg" xmlns:xlink="http://www.w3.org/1999/xlink" version="1.1" id="Layer_1" x="0px" y="0px" enable-background="new 0 0 1024 351" xml:space="preserve" viewBox="1 1 1024 351">
<path fill="#FFFFFE" opacity="0.000000" stroke="none" d=" M663.000000,352.000000   C442.000092,352.000000 221.500153,352.000000 1.000177,352.000000   C1.000118,235.000122 1.000118,118.000244 1.000059,1.000272   C342.333099,1.000181 683.666199,1.000181 1024.999512,1.000091   C1024.999634,117.999718 1024.999634,234.999435 1024.999756,351.999573   C904.500000,352.000000 784.000000,352.000000 663.000000,352.000000  M215.123535,287.692719   C217.442932,287.900085 219.761856,288.280792 222.081818,288.287354   C240.239349,288.338928 258.397095,288.318695 276.554749,288.320587   C278.852844,288.320831 281.150940,288.320648 283.565430,288.320648   C283.565430,207.093124 283.565430,126.369484 283.565430,45.422157   C274.954285,45.422157 266.577545,45.422157 257.669128,45.422157   C257.669128,69.862144 257.669128,94.016167 257.669128,117.061630   C252.125595,115.493820 246.882263,113.245087 241.460953,112.667831   C234.381836,111.914055 227.126678,112.028694 220.009735,112.578407   C205.183319,113.723610 195.815796,124.048546 195.781540,139.086700   C195.688538,179.899582 195.706528,220.712906 195.782623,261.525848   C195.807449,274.837921 201.690552,282.839661 215.123535,287.692719  M312.997375,183.500000   C312.997437,209.492950 313.015320,235.485916 312.988159,261.478851   C312.978210,270.970612 316.496399,278.661316 324.421814,284.073639   C332.810760,289.802490 360.287628,290.338867 368.913300,284.871796   C372.356750,282.689301 375.522614,280.068939 378.054596,278.206940   C378.358337,280.212036 378.962250,284.198730 379.534088,287.973938   C387.271790,287.973938 394.496582,287.973938 401.738312,287.973938   C401.738312,229.357162 401.738312,171.105637 401.738312,112.658920   C393.115356,112.658920 384.714233,112.658920 375.908875,112.658920   C375.908875,164.055801 375.908875,215.141144 375.908875,266.193268   C363.413269,266.193268 351.325989,266.193268 338.793762,266.193268   C338.793762,214.903152 338.793762,163.840454 338.793762,112.691940   C329.959503,112.691940 321.576721,112.691940 312.997375,112.691940   C312.997375,136.192276 312.997375,159.346146 312.997375,183.500000  M455.156006,249.498169   C455.156006,211.405151 455.156006,173.312119 455.156006,135.114624   C467.620636,135.114624 479.547394,135.114624 491.888794,135.114624   C491.888794,146.627457 491.888794,157.892014 491.888794,169.131378   C500.413605,169.131378 508.518829,169.131378 516.858215,169.131378   C516.858215,159.049545 516.864319,149.235687 516.856812,139.421829   C516.844421,123.209297 506.843903,112.750328 490.630798,112.396812   C479.141510,112.146278 467.639801,112.157356 456.149048,112.359756   C440.618805,112.633316 429.599243,122.905807 429.485352,138.232727   C429.177124,179.710739 429.193787,221.193604 429.460144,262.672119   C429.553650,277.227081 440.043488,287.807465 454.178802,288.215881   C466.995209,288.586212 479.837677,288.562500 492.655731,288.223511   C504.756500,287.903473 515.218872,279.473450 516.335022,267.860596   C517.423340,256.536163 516.571594,245.025299 516.571594,233.378708   C508.235474,233.378708 500.158508,233.378708 491.677673,233.378708   C491.677673,244.358368 491.677673,255.126022 491.677673,266.407410   C480.993011,266.407410 470.703491,266.407379 460.413940,266.407379   C458.800903,266.407379 457.187897,266.407410 455.155853,266.407410   C455.155853,260.753632 455.155853,255.625153 455.156006,249.498169  M566.388428,249.598770   C566.388428,246.638245 566.388428,243.677719 566.388428,240.556641   C557.670410,240.556641 549.435913,240.556641 540.826904,240.556641   C540.826904,248.132202 540.692078,255.434601 540.855103,262.730347   C541.187012,277.581421 551.640503,288.017517 566.546021,288.282440   C576.702637,288.462952 586.868713,288.477753 597.024170,288.265320   C611.563904,287.961243 621.992737,277.346619 622.214478,262.778412   C622.348816,253.952942 621.994690,245.113831 622.338989,236.299545   C622.654419,228.222992 619.739990,221.957153 614.088257,216.283508   C599.281311,201.418900 584.771423,186.258148 570.177490,171.182129   C569.045471,170.012665 567.353821,168.601120 567.324890,167.271591   C567.091370,156.533554 567.193909,145.788223 567.193909,135.120285   C577.476685,135.120285 587.076965,135.120285 597.147827,135.120285   C597.147827,143.608566 597.147827,151.843979 597.147827,160.305450   C605.701294,160.305450 613.779236,160.305450 622.263977,160.305450   C622.263977,153.265335 622.302429,146.465286 622.256409,139.665802   C622.145630,123.306351 611.883545,112.728127 595.584290,112.382462   C586.427734,112.188271 577.260376,112.162743 568.104370,112.361496   C552.973145,112.689957 542.502563,122.262878 541.582397,137.319427   C540.964111,147.436295 541.471252,157.625092 541.561890,167.780930   C541.613525,173.565414 544.035645,178.258850 548.075684,182.411743   C563.518494,198.285721 578.840210,214.277802 594.152344,230.278198   C595.360229,231.540421 596.963013,233.185974 596.998657,234.686325   C597.247131,245.124573 597.129944,255.571548 597.129944,265.979736   C586.615967,265.979736 576.594299,265.979736 566.388000,265.979736   C566.388000,260.559998 566.388000,255.567261 566.388428,249.598770  M723.205078,276.592468   C724.519592,271.515594 726.581787,266.496277 726.977966,261.348724   C727.615417,253.066956 726.893860,244.690094 727.228882,236.372849   C727.553894,228.304382 724.686035,222.011902 719.022400,216.323410   C703.980225,201.215424 689.238037,185.808441 674.420410,170.477982   C673.429993,169.453278 672.137817,168.085709 672.116638,166.858154   C671.934326,156.263657 672.011780,145.664703 672.011780,135.074097   C682.288574,135.074097 691.894104,135.074097 701.961060,135.074097   C701.961060,143.523865 701.961060,151.771332 701.961060,160.278534   C710.510132,160.278534 718.596497,160.278534 727.156677,160.278534   C727.156677,153.141953 727.203979,146.183060 727.147034,139.225006   C727.019897,123.671135 717.127075,113.123131 701.499756,112.462387   C691.687622,112.047516 681.829834,112.047333 672.017395,112.456497   C656.660522,113.096870 646.607178,123.716347 646.251831,139.272827   C646.065430,147.432678 646.310364,155.601654 646.184143,163.763779   C646.059204,171.846466 648.738098,178.433792 654.572998,184.292099   C669.617798,199.397247 684.275330,214.888718 699.030029,230.281052   C700.234619,231.537643 701.805908,233.195465 701.841187,234.698959   C702.086670,245.140747 701.970764,255.591019 701.970764,266.145599   C691.535095,266.145599 681.619141,266.145599 671.194458,266.145599   C671.194458,257.488556 671.194458,249.085953 671.194458,240.629761   C662.461060,240.629761 654.242493,240.629761 645.720032,240.629761   C645.720032,248.092880 645.607178,255.234818 645.743225,262.371979   C646.036926,277.771667 656.594421,288.152710 672.088196,288.300507   C681.584290,288.391083 691.082520,288.249786 700.578674,288.337585   C709.929016,288.424042 717.346313,284.796265 723.205078,276.592468  M835.474304,16.120905   C831.974915,16.133760 828.444763,15.885036 824.991699,16.291494   C823.657471,16.448532 821.732788,17.868452 821.376160,19.091740   C817.190186,33.449749 813.194702,47.864353 809.261902,62.294819   C804.241455,80.715942 799.384766,99.181778 794.348999,117.598656   C785.872253,148.599945 777.318604,179.580215 768.780640,210.564743   C763.004028,231.528381 757.190186,252.481781 751.409058,273.444183   C746.738525,290.379395 742.074097,307.316284 737.461182,324.267212   C736.969543,326.073730 736.841309,327.979187 736.512207,330.041046   C743.730591,330.041046 750.222839,330.220001 756.690491,329.900665   C758.103149,329.830902 760.133301,328.256805 760.661499,326.901062   C762.276367,322.756226 763.355286,318.396027 764.541260,314.091644   C771.942749,287.227753 779.326782,260.359070 786.696106,233.486343   C791.172241,217.163971 795.582214,200.823410 800.074341,184.505463   C806.946411,159.542480 813.876282,134.595398 820.758240,109.635101   C827.243530,86.113258 833.707581,62.585522 840.161987,39.055161   C842.198059,31.632011 844.172791,24.192049 846.349365,16.114944   C842.394348,16.114944 839.422119,16.114944 835.474304,16.120905  M897.608276,212.076157   C881.361267,230.008545 865.114258,247.940918 848.867249,265.873322   C858.581787,266.942932 867.403259,266.803955 876.216431,267.011749   C879.710449,267.094147 882.057800,265.929382 884.349121,263.298309   C902.422852,242.544403 920.538757,221.824646 938.913025,201.337753   C941.773315,198.148605 941.951660,196.421021 939.131409,193.268402   C920.330627,172.251862 901.722229,151.063232 882.987061,129.987625   C882.083618,128.971344 880.585571,127.881989 879.346680,127.860718   C869.322998,127.688644 859.295105,127.764168 848.431091,127.764168   C849.499695,129.091278 849.948730,129.710907 850.459534,130.274506   C869.714966,151.519958 888.940979,172.792297 908.282593,193.959015   C910.592896,196.487259 910.678894,198.079132 908.138611,200.517166   C904.556946,203.954590 901.440002,207.876221 897.608276,212.076157  M176.547424,265.995972   C175.121002,264.222321 173.776337,262.375031 172.255676,260.686249   C154.155991,240.585724 136.091034,220.453079 117.836441,200.493973   C115.468239,197.904633 115.446915,196.450241 117.738770,193.940414   C136.958420,172.892975 156.064575,151.741852 175.190018,130.608475   C175.856567,129.871933 176.366959,128.994080 177.260788,127.749588   C167.043503,127.749588 157.583023,127.612862 148.133041,127.866661   C146.276123,127.916534 143.948105,129.016373 142.701569,130.406769   C124.766502,150.411499 106.958748,170.530624 89.169167,190.665359   C83.589752,196.980270 83.602409,197.085632 89.171730,203.442169   C106.762016,223.518936 124.333405,243.613358 142.118607,263.516418   C143.743332,265.334686 146.816681,266.703918 149.267868,266.786774   C158.239548,267.089996 167.232605,266.760742 176.547424,265.995972  z"/>
<path fill="#FFFFFF" opacity="1.000000" stroke="none" d=" M214.732330,287.565826   C201.690552,282.839661 195.807449,274.837921 195.782623,261.525848   C195.706528,220.712906 195.688538,179.899582 195.781540,139.086700   C195.815796,124.048546 205.183319,113.723610 220.009735,112.578407   C227.126678,112.028694 234.381836,111.914055 241.460953,112.667831   C246.882263,113.245087 252.125595,115.493820 257.669128,117.061630   C257.669128,94.016167 257.669128,69.862144 257.669128,45.422157   C266.577545,45.422157 274.954285,45.422157 283.565430,45.422157   C283.565430,126.369484 283.565430,207.093124 283.565430,288.320648   C281.150940,288.320648 278.852844,288.320831 276.554749,288.320587   C258.397095,288.318695 240.239349,288.338928 222.081818,288.287354   C219.761856,288.280792 217.442932,287.900085 214.732330,287.565826  M258.001404,169.500000   C258.001404,158.066101 258.001404,146.632217 258.001404,135.144135   C245.557816,135.144135 233.678116,135.144135 221.703491,135.144135   C221.703491,178.963989 221.703491,222.489502 221.703491,266.139282   C233.911041,266.139282 245.809830,266.139282 258.001404,266.139282   C258.001404,234.068512 258.001404,202.284256 258.001404,169.500000  z"/>
<path fill="#FFFFFF" opacity="1.000000" stroke="none" d=" M312.997375,183.000000   C312.997375,159.346146 312.997375,136.192276 312.997375,112.691940   C321.576721,112.691940 329.959503,112.691940 338.793762,112.691940   C338.793762,163.840454 338.793762,214.903152 338.793762,266.193268   C351.325989,266.193268 363.413269,266.193268 375.908875,266.193268   C375.908875,215.141144 375.908875,164.055801 375.908875,112.658920   C384.714233,112.658920 393.115356,112.658920 401.738312,112.658920   C401.738312,171.105637 401.738312,229.357162 401.738312,287.973938   C394.496582,287.973938 387.271790,287.973938 379.534088,287.973938   C378.962250,284.198730 378.358337,280.212036 378.054596,278.206940   C375.522614,280.068939 372.356750,282.689301 368.913300,284.871796   C360.287628,290.338867 332.810760,289.802490 324.421814,284.073639   C316.496399,278.661316 312.978210,270.970612 312.988159,261.478851   C313.015320,235.485916 312.997437,209.492950 312.997375,183.000000  z"/>
<path fill="#FFFFFF" opacity="1.000000" stroke="none" d=" M455.155945,249.997421   C455.155853,255.625153 455.155853,260.753632 455.155853,266.407410   C457.187897,266.407410 458.800903,266.407379 460.413940,266.407379   C470.703491,266.407379 480.993011,266.407410 491.677673,266.407410   C491.677673,255.126022 491.677673,244.358368 491.677673,233.378708   C500.158508,233.378708 508.235474,233.378708 516.571594,233.378708   C516.571594,245.025299 517.423340,256.536163 516.335022,267.860596   C515.218872,279.473450 504.756500,287.903473 492.655731,288.223511   C479.837677,288.562500 466.995209,288.586212 454.178802,288.215881   C440.043488,287.807465 429.553650,277.227081 429.460144,262.672119   C429.193787,221.193604 429.177124,179.710739 429.485352,138.232727   C429.599243,122.905807 440.618805,112.633316 456.149048,112.359756   C467.639801,112.157356 479.141510,112.146278 490.630798,112.396812   C506.843903,112.750328 516.844421,123.209297 516.856812,139.421829   C516.864319,149.235687 516.858215,159.049545 516.858215,169.131378   C508.518829,169.131378 500.413605,169.131378 491.888794,169.131378   C491.888794,157.892014 491.888794,146.627457 491.888794,135.114624   C479.547394,135.114624 467.620636,135.114624 455.156006,135.114624   C455.156006,173.312119 455.156006,211.405151 455.155945,249.997421  z"/>
<path fill="#FFFFFF" opacity="1.000000" stroke="none" d=" M566.388184,250.086639   C566.388000,255.567261 566.388000,260.559998 566.388000,265.979736   C576.594299,265.979736 586.615967,265.979736 597.129944,265.979736   C597.129944,255.571548 597.247131,245.124573 596.998657,234.686325   C596.963013,233.185974 595.360229,231.540421 594.152344,230.278198   C578.840210,214.277802 563.518494,198.285721 548.075684,182.411743   C544.035645,178.258850 541.613525,173.565414 541.561890,167.780930   C541.471252,157.625092 540.964111,147.436295 541.582397,137.319427   C542.502563,122.262878 552.973145,112.689957 568.104370,112.361496   C577.260376,112.162743 586.427734,112.188271 595.584290,112.382462   C611.883545,112.728127 622.145630,123.306351 622.256409,139.665802   C622.302429,146.465286 622.263977,153.265335 622.263977,160.305450   C613.779236,160.305450 605.701294,160.305450 597.147827,160.305450   C597.147827,151.843979 597.147827,143.608566 597.147827,135.120285   C587.076965,135.120285 577.476685,135.120285 567.193909,135.120285   C567.193909,145.788223 567.091370,156.533554 567.324890,167.271591   C567.353821,168.601120 569.045471,170.012665 570.177490,171.182129   C584.771423,186.258148 599.281311,201.418900 614.088257,216.283508   C619.739990,221.957153 622.654419,228.222992 622.338989,236.299545   C621.994690,245.113831 622.348816,253.952942 622.214478,262.778412   C621.992737,277.346619 611.563904,287.961243 597.024170,288.265320   C586.868713,288.477753 576.702637,288.462952 566.546021,288.282440   C551.640503,288.017517 541.187012,277.581421 540.855103,262.730347   C540.692078,255.434601 540.826904,248.132202 540.826904,240.556641   C549.435913,240.556641 557.670410,240.556641 566.388428,240.556641   C566.388428,243.677719 566.388428,246.638245 566.388184,250.086639  z"/>
<path fill="#FFFFFF" opacity="1.000000" stroke="none" d=" M723.016663,276.905518   C717.346313,284.796265 709.929016,288.424042 700.578674,288.337585   C691.082520,288.249786 681.584290,288.391083 672.088196,288.300507   C656.594421,288.152710 646.036926,277.771667 645.743225,262.371979   C645.607178,255.234818 645.720032,248.092880 645.720032,240.629761   C654.242493,240.629761 662.461060,240.629761 671.194458,240.629761   C671.194458,249.085953 671.194458,257.488556 671.194458,266.145599   C681.619141,266.145599 691.535095,266.145599 701.970764,266.145599   C701.970764,255.591019 702.086670,245.140747 701.841187,234.698959   C701.805908,233.195465 700.234619,231.537643 699.030029,230.281052   C684.275330,214.888718 669.617798,199.397247 654.572998,184.292099   C648.738098,178.433792 646.059204,171.846466 646.184143,163.763779   C646.310364,155.601654 646.065430,147.432678 646.251831,139.272827   C646.607178,123.716347 656.660522,113.096870 672.017395,112.456497   C681.829834,112.047333 691.687622,112.047516 701.499756,112.462387   C717.127075,113.123131 727.019897,123.671135 727.147034,139.225006   C727.203979,146.183060 727.156677,153.141953 727.156677,160.278534   C718.596497,160.278534 710.510132,160.278534 701.961060,160.278534   C701.961060,151.771332 701.961060,143.523865 701.961060,135.074097   C691.894104,135.074097 682.288574,135.074097 672.011780,135.074097   C672.011780,145.664703 671.934326,156.263657 672.116638,166.858154   C672.137817,168.085709 673.429993,169.453278 674.420410,170.477982   C689.238037,185.808441 703.980225,201.215424 719.022400,216.323410   C724.686035,222.011902 727.553894,228.304382 727.228882,236.372849   C726.893860,244.690094 727.615417,253.066956 726.977966,261.348724   C726.581787,266.496277 724.519592,271.515594 723.016663,276.905518  z"/>
<path fill="#FCA132" opacity="1.000000" stroke="none" d=" M835.962097,16.117924   C839.422119,16.114944 842.394348,16.114944 846.349365,16.114944   C844.172791,24.192049 842.198059,31.632011 840.161987,39.055161   C833.707581,62.585522 827.243530,86.113258 820.758240,109.635101   C813.876282,134.595398 806.946411,159.542480 800.074341,184.505463   C795.582214,200.823410 791.172241,217.163971 786.696106,233.486343   C779.326782,260.359070 771.942749,287.227753 764.541260,314.091644   C763.355286,318.396027 762.276367,322.756226 760.661499,326.901062   C760.133301,328.256805 758.103149,329.830902 756.690491,329.900665   C750.222839,330.220001 743.730591,330.041046 736.512207,330.041046   C736.841309,327.979187 736.969543,326.073730 737.461182,324.267212   C742.074097,307.316284 746.738525,290.379395 751.409058,273.444183   C757.190186,252.481781 763.004028,231.528381 768.780640,210.564743   C777.318604,179.580215 785.872253,148.599945 794.348999,117.598656   C799.384766,99.181778 804.241455,80.715942 809.261902,62.294819   C813.194702,47.864353 817.190186,33.449749 821.376160,19.091740   C821.732788,17.868452 823.657471,16.448532 824.991699,16.291494   C828.444763,15.885036 831.974915,16.133760 835.962097,16.117924  z"/>
<path fill="#FCA133" opacity="1.000000" stroke="none" d=" M897.866333,211.833511   C901.440002,207.876221 904.556946,203.954590 908.138611,200.517166   C910.678894,198.079132 910.592896,196.487259 908.282593,193.959015   C888.940979,172.792297 869.714966,151.519958 850.459534,130.274506   C849.948730,129.710907 849.499695,129.091278 848.431091,127.764168   C859.295105,127.764168 869.322998,127.688644 879.346680,127.860718   C880.585571,127.881989 882.083618,128.971344 882.987061,129.987625   C901.722229,151.063232 920.330627,172.251862 939.131409,193.268402   C941.951660,196.421021 941.773315,198.148605 938.913025,201.337753   C920.538757,221.824646 902.422852,242.544403 884.349121,263.298309   C882.057800,265.929382 879.710449,267.094147 876.216431,267.011749   C867.403259,266.803955 858.581787,266.942932 848.867249,265.873322   C865.114258,247.940918 881.361267,230.008545 897.866333,211.833511  z"/>
<path fill="#FCA133" opacity="1.000000" stroke="none" d=" M176.382523,266.332825   C167.232605,266.760742 158.239548,267.089996 149.267868,266.786774   C146.816681,266.703918 143.743332,265.334686 142.118607,263.516418   C124.333405,243.613358 106.762016,223.518936 89.171730,203.442169   C83.602409,197.085632 83.589752,196.980270 89.169167,190.665359   C106.958748,170.530624 124.766502,150.411499 142.701569,130.406769   C143.948105,129.016373 146.276123,127.916534 148.133041,127.866661   C157.583023,127.612862 167.043503,127.749588 177.260788,127.749588   C176.366959,128.994080 175.856567,129.871933 175.190018,130.608475   C156.064575,151.741852 136.958420,172.892975 117.738770,193.940414   C115.446915,196.450241 115.468239,197.904633 117.836441,200.493973   C136.091034,220.453079 154.155991,240.585724 172.255676,260.686249   C173.776337,262.375031 175.121002,264.222321 176.382523,266.332825  z"/>
<path fill="#FCFCFC" opacity="0.000000" stroke="none" d=" M258.001404,170.000000   C258.001404,202.284256 258.001404,234.068512 258.001404,266.139282   C245.809830,266.139282 233.911041,266.139282 221.703491,266.139282   C221.703491,222.489502 221.703491,178.963989 221.703491,135.144135   C233.678116,135.144135 245.557816,135.144135 258.001404,135.144135   C258.001404,146.632217 258.001404,158.066101 258.001404,170.000000  z"/>
</svg>